<svg xmlns="http://www.w3.org/2000/svg" viewBox="0 0 44.08 40.2"><g id="Layer_2" data-name="Layer 2"><g id="Layer_1" data-name="Layer 1"><path d="M43.91,10a.93.93,0,0,0-.76-.39H9L6.66.7a.93.93,0,0,0-.9-.7H.93a.93.93,0,1,0,0,1.86H5l5.71,21.81L9,29.53a.93.93,0,0,0,.89,1.2H36.72a.93.93,0,1,0,0-1.86H11.14l1.27-4.25H38.57a.93.93,0,0,0,.88-.62L44,10.89a.94.94,0,0,0-.12-.85Zm-6,12.72H12.43L9.49,11.51H41.84ZM15.64,32.52a3.84,3.84,0,1,0,3.84,3.84A3.85,3.85,0,0,0,15.64,32.52Zm0,5.82a2,2,0,1,1,2-2A2,2,0,0,1,15.64,38.34Zm16.14-5.82a3.84,3.84,0,1,0,3.84,3.84A3.85,3.85,0,0,0,31.77,32.52Zm0,5.82a2,2,0,1,1,2-2A2,2,0,0,1,31.77,38.34Z"/></g></g></svg>
